<svg width="198" height="69" viewBox="0 0 198 69" fill="none" xmlns="http://www.w3.org/2000/svg">
<path d="M62.1309 38V16.7367H65.3744V38H62.1309ZM66.4556 38V16.7367H67.5368V38H66.4556ZM68.618 38V16.7367H69.6992V38H68.618ZM72.9427 38V16.7367H74.0239V38H72.9427ZM75.1051 38V16.7367H78.3486V38H75.1051ZM72.1138 47.0459H69.4108L68.5819 49.4966H67.6449L70.7083 40.9913H70.8164L73.9158 49.4966H72.9427L72.1138 47.0459ZM71.8615 46.3251L70.7803 43.1537L69.6631 46.3251H71.8615ZM79.4467 38V16.7367H80.5279V38H79.4467ZM81.6091 38V16.7367H82.6903V38H81.6091ZM83.7715 38V16.7367H87.015V38H83.7715ZM88.0962 38V16.7367H91.3398V38H88.0962ZM94.5833 38V16.7367H95.6645V38H94.5833ZM87.5196 41.9643H85.177V41.1354H90.9433V41.9643H88.4926V49.4966H87.5196V41.9643ZM96.7626 38V16.7367H100.006V38H96.7626ZM101.087 38V16.7367H102.169V38H101.087ZM103.25 38V16.7367H104.331V38H103.25ZM107.574 38V16.7367H110.818V38H107.574ZM111.899 38V16.7367H112.98V38H111.899ZM102.745 41.1354H103.826V41.2436C103.778 41.2916 103.742 41.3517 103.718 41.4238C103.718 41.4718 103.718 41.5799 103.718 41.7481V44.7033H106.962V41.1354H108.079V41.2436C108.031 41.2916 107.995 41.3517 107.971 41.4238C107.971 41.4718 107.971 41.5799 107.971 41.7481V49.4966H106.962V45.5323H103.718V49.4966H102.745V41.1354ZM114.078 38V16.7367H117.322V38H114.078ZM118.403 38V16.7367H121.647V38H118.403ZM122.728 38V16.7367H123.809V38H122.728ZM124.89 38V16.7367H125.971V38H124.89ZM129.215 38V16.7367H130.296V38H129.215ZM119.917 41.1354H120.674L122.728 45.2439L124.818 41.1354H125.539V49.4966H124.638V43.1897L122.836 46.5774H122.476L120.782 43.2257V49.4966H119.917V41.1354ZM131.394 38V16.7367H134.638V38H131.394ZM135.719 38V16.7367H136.8V38H135.719ZM137.881 38V16.7367H138.963V38H137.881ZM142.206 38V16.7367H143.287V38H142.206ZM144.369 38V16.7367H147.612V38H144.369ZM141.377 47.0459H138.674L137.845 49.4966H136.908L139.972 40.9913H140.08L143.179 49.4966H142.206L141.377 47.0459ZM141.125 46.3251L140.044 43.1537L138.927 46.3251H141.125Z" fill="white"/>
<path d="M155.473 37.9999V16.7366H156.554V37.9999H155.473ZM157.635 37.9999V16.7366H160.879V37.9999H157.635ZM164.122 37.9999V16.7366H165.204V37.9999H164.122ZM166.285 37.9999V16.7366H167.366V37.9999H166.285ZM168.447 37.9999V16.7366H171.691V37.9999H168.447ZM161.744 48.7397L162.825 47.6585C163.546 46.9377 164.086 46.361 164.447 45.9286C164.807 45.5201 165.095 45.1117 165.312 44.7032C165.528 44.3188 165.636 43.8983 165.636 43.4418C165.636 42.9133 165.516 42.5288 165.276 42.2886C165.011 42.0483 164.663 41.9282 164.231 41.9282C163.558 41.9282 162.993 42.2045 162.537 42.7571C162.441 42.9013 162.393 43.0214 162.393 43.1175C162.393 43.1896 162.393 43.2376 162.393 43.2616L162.32 43.3337L162.248 43.2616L161.564 42.7211C161.828 42.1925 162.188 41.796 162.645 41.5318C163.101 41.2434 163.63 41.0993 164.231 41.0993C164.927 41.0993 165.504 41.3155 165.96 41.748C166.393 42.1805 166.609 42.7571 166.609 43.4779C166.609 43.9584 166.489 44.4269 166.249 44.8834C166.033 45.3399 165.744 45.7724 165.384 46.1808C165.023 46.5893 164.519 47.1179 163.87 47.7666L162.969 48.6676H166.069C166.213 48.6676 166.321 48.6676 166.393 48.6676C166.441 48.6435 166.501 48.6075 166.573 48.5595H166.645V49.4965H161.744V48.7397ZM172.789 37.9999V16.7366H173.87V37.9999H172.789ZM174.951 37.9999V16.7366H176.032V37.9999H174.951ZM179.276 37.9999V16.7366H182.519V37.9999H179.276ZM183.601 37.9999V16.7366H184.682V37.9999H183.601ZM185.763 37.9999V16.7366H189.007V37.9999H185.763ZM182.339 47.4422H178.735V46.7575L182.555 41.1353H183.348V46.6854H184.394V47.4422H183.348V49.4965H182.339V47.4422ZM182.339 46.6494V42.8292L179.816 46.6494H182.339Z" fill="white"/>
<g filter="url(#filter0_d_282_4794)">
<path d="M36.938 21.3886V40.7234L39.4708 39.226V35.8787H52.221L48.7855 32.4436H39.5367V27.7751L42.6638 30.9022H46.7156L36.938 21.389V21.3886ZM46.0986 37.5084H53.5859L55.3034 39.226H50.2826L51.7361 41.4724H48.9173L46.0986 37.5084ZM18.3658 21.3886V40.7234L15.8334 39.226V35.8787H3.08319L6.51869 32.4436H15.7675V27.7751L12.6404 30.9022H8.58855L18.3658 21.389V21.3886ZM9.20489 37.5084H1.71756L0 39.226H5.02085L3.56733 41.4724H6.38611L9.20489 37.5084ZM35.8051 26.6738L29.7657 29.3325V18.5076L35.4658 24.2081V20.729L27.669 12.9106L19.8845 20.6952V24.1753L25.5847 18.4737V29.3023L19.6451 26.6876L19.3125 26.5413V45.0833L20.0175 45.7882V39.137H25.5847V48.4856L27.7193 50.5659L29.7661 48.5191V39.1239H35.4327V45.7737L36.1366 45.0687V26.5267L35.8055 26.6727L35.8051 26.6738ZM25.5843 35.9231H19.9732V31.3431L25.5843 33.448V35.9231ZM35.4763 35.9089H29.7657V33.4726L35.4763 31.329V35.9089Z" fill="white"/>
</g>
<defs>
<filter id="filter0_d_282_4794" x="0" y="12.9106" width="55.8993" height="37.9532" filterUnits="userSpaceOnUse" color-interpolation-filters="sRGB">
<feFlood flood-opacity="0" result="BackgroundImageFix"/>
<feColorMatrix in="SourceAlpha" type="matrix" values="0 0 0 0 0 0 0 0 0 0 0 0 0 0 0 0 0 0 127 0" result="hardAlpha"/>
<feOffset dx="0.446894" dy="0.148965"/>
<feGaussianBlur stdDeviation="0.0744823"/>
<feComposite in2="hardAlpha" operator="out"/>
<feColorMatrix type="matrix" values="0 0 0 0 0 0 0 0 0 0 0 0 0 0 0 0 0 0 0.25 0"/>
<feBlend mode="normal" in2="BackgroundImageFix" result="effect1_dropShadow_282_4794"/>
<feBlend mode="normal" in="SourceGraphic" in2="effect1_dropShadow_282_4794" result="shape"/>
</filter>
</defs>
</svg>
