<svg width="200" height="200" viewBox="0 0 200 200" fill="none" xmlns="http://www.w3.org/2000/svg">
<circle cx="100" cy="100" r="100" fill="url(#paint0_linear_4_6)"/>
<circle cx="100" cy="100" r="85" stroke="#FFAF14" stroke-width="7"/>
<path d="M122.836 78.3363V117.873L129.065 114.811V107.967H160.42L151.971 100.942H129.227V91.3958L136.917 97.7904H146.881L122.836 78.337V78.3363ZM145.364 111.299H163.776L168 114.811H155.653L159.227 119.405H152.296L145.364 111.299ZM77.1645 78.3363V117.873L70.9369 114.811V107.967H39.5821L48.0305 100.942H70.7749V91.3958L63.0847 97.7904H53.1206L77.1645 78.337V78.3363ZM54.6363 111.299H36.2238L32 114.811H44.3471L40.7726 119.405H47.7045L54.6363 111.299ZM120.05 89.1439L105.199 94.5805V72.4451L119.216 84.1018V76.9876L100.043 61L80.8992 76.9183V84.0348L94.9167 72.3758V94.5188L80.3104 89.1721L79.4925 88.8728V126.789L81.2262 128.23V114.629H94.9167V133.746L100.166 138L105.2 133.815V114.603H119.135V128.201L120.866 126.759V88.8431L120.051 89.1416L120.05 89.1439ZM94.9158 108.057H81.1172V98.692L94.9158 102.996V108.057ZM119.242 108.028H105.199V103.046L119.242 98.6631V108.028Z" fill="#FFAF14"/>
<defs>
<linearGradient id="paint0_linear_4_6" x1="100" y1="100" x2="100" y2="43" gradientUnits="userSpaceOnUse">
<stop offset="0.205" stop-color="#FBC966"/>
<stop offset="1" stop-color="#FCB326" stop-opacity="0.93"/>
</linearGradient>
</defs>
</svg>
